<svg xmlns="http://www.w3.org/2000/svg" width="56" height="56" viewBox="0 0 56 56">
  <g id="Group_75062" data-name="Group 75062" transform="translate(-47 -1900.238)">
    <circle id="Ellipse_113" data-name="Ellipse 113" cx="28" cy="28" r="28" transform="translate(47 1900.238)" fill="#fff"/>
    <path id="popper" d="M6.4,20.307H6.37v.071L1.132,32.869,24.186,23.2,10.8,9.815Zm7.959,5.571L11.7,26.994v-14.4l2.663,2.663Zm1.332-9.29,2.663,2.663V24.2l-2.663,1.117ZM10.365,27.553,7.7,28.67V20.646L10.365,14.3ZM6.37,23.821v5.407L3.619,30.382,6.37,23.821Zm13.315-.177V20.583l2.157,2.157-2.157.9ZM18.354,6.326a2.663,2.663,0,1,0,2.663,2.663A2.666,2.666,0,0,0,18.354,6.326Zm0,3.995a1.332,1.332,0,1,1,1.332-1.332A1.333,1.333,0,0,1,18.354,10.321ZM30.338,1A2.663,2.663,0,1,0,33,3.663,2.666,2.666,0,0,0,30.338,1Zm0,3.995A1.332,1.332,0,1,1,31.67,3.663,1.333,1.333,0,0,1,30.338,4.995Zm-3.329,6.658a2.663,2.663,0,1,0,2.663,2.663A2.666,2.666,0,0,0,27.009,11.652Zm0,3.995a1.332,1.332,0,1,1,1.332-1.332A1.333,1.333,0,0,1,27.009,15.647Zm-2.791,5.109.941.941a4.747,4.747,0,0,1,6.705,0l.941-.941A6.078,6.078,0,0,0,24.218,20.756ZM12.833,10.126a4.666,4.666,0,0,0,0-6.59l-.941.941a3.333,3.333,0,0,1,0,4.708l.941.941Zm11.318-.161a6.323,6.323,0,0,0,0-8.931l-.941.941a4.991,4.991,0,0,1,0,7.049ZM19.02,13.65h1.332v1.332H19.02ZM29.672,8.324H31V9.655H29.672ZM16.357,2.332h1.332V3.663H16.357Z" transform="translate(58.391 1911.373)" fill="#099a4f"/>
  </g>
</svg>
